<svg width="1200" height="320" viewBox="0 0 1200 320" fill="none" xmlns="http://www.w3.org/2000/svg">
  <!-- C1P Mark -->
  <g transform="translate(60, 40) scale(0.6)">
    <rect width="400" height="400" rx="70" fill="#F4F4F5" stroke="#E4E4E7" stroke-width="6" />
    <path
      d="M 280 90 C 235 60 180 55 140 70 C 85 90 50 140 50 205 C 50 270 90 320 160 330 C 210 335 260 310 290 275"
      stroke="#09090B"
      stroke-width="32"
      stroke-linecap="round"
    />
    <path
      d="M 150 150 L 180 120 V 285"
      stroke="#09090B"
      stroke-width="30"
      stroke-linecap="round"
      stroke-linejoin="round"
    />
    <path
      d="M 230 120 H 290 C 330 120 350 150 350 180 C 350 215 325 240 290 240 H 230 V 285"
      stroke="#09090B"
      stroke-width="30"
      stroke-linecap="round"
      stroke-linejoin="round"
    />
    <circle cx="290" cy="180" r="16" fill="#09090B" />
  </g>

  <!-- Typography -->
  <text x="350" y="160" font-family="'Inter', sans-serif" font-size="105" font-weight="900" letter-spacing="-2px" fill="#09090B">C1P</text>
  <text x="355" y="215" font-family="'Inter', sans-serif" font-size="24" font-weight="600" letter-spacing="8px" fill="#71717A">CREATE. INNOVATE. PROGRESS.</text>
</svg>
